<?xml version="1.0" encoding="UTF-8"?>
<svg width="28px" height="26px" viewBox="0 0 28 26" version="1.1" xmlns="http://www.w3.org/2000/svg">
    <!-- Generator: Sketch 49.3 (51167) - http://www.bohemiancoding.com/sketch -->
    <title>Page 1</title>
    <desc>Created with Sketch.</desc>
    <defs></defs>
    <g id="Symbols" stroke="none" stroke-width="1" fill="none" fill-rule="evenodd">
        <g id="UI/Icon/excel">
            <g id="Page-1">
                <path d="M26.25,20.8002336 L15.75,20.8002336 L15.75,19.0669781 L18.375,19.0669781 C18.858,19.0669781 19.25,18.6787289 19.25,18.2003503 C19.25,17.7219718 18.858,17.3337226 18.375,17.3337226 L15.75,17.3337226 L15.75,15.6004671 L18.375,15.6004671 C18.858,15.6004671 19.25,15.2122179 19.25,14.7338394 C19.25,14.2554609 18.858,13.8672116 18.375,13.8672116 L15.75,13.8672116 L15.75,12.1339562 L18.375,12.1339562 C18.858,12.1339562 19.25,11.7457069 19.25,11.2673284 C19.25,10.7889499 18.858,10.4007007 18.375,10.4007007 L15.75,10.4007007 L15.75,8.66744519 L18.375,8.66744519 C18.858,8.66744519 19.25,8.27919597 19.25,7.80081745 C19.25,7.32243894 18.858,6.93418971 18.375,6.93418971 L15.75,6.93418971 L15.75,5.20093423 L26.25,5.20093423 L26.25,20.8002336 Z M12.033,15.896908 C12.3515,16.2556919 12.31475,16.8033464 11.95075,17.1187989 C11.7845,17.2626591 11.57975,17.3337226 11.375,17.3337226 C11.13175,17.3337226 10.89025,17.2332479 10.717,17.0373359 L8.1725,14.1583986 L5.94125,17.0009375 C5.768,17.2193819 5.509,17.3337226 5.25,17.3337226 C5.06275,17.3337226 4.87375,17.2747919 4.71275,17.1517849 C4.33125,16.8570773 4.263,16.3128351 4.55875,15.9350396 L6.99825,12.8289916 L4.592,10.104314 C4.2735,9.7455301 4.31025,9.19782137 4.67425,8.88236887 C5.0365,8.56697054 5.58775,8.60158149 5.90975,8.96383188 L8.09375,11.4354542 L10.6855,8.13533576 C10.983,7.75921932 11.5325,7.6898891 11.914,7.98454254 C12.2955,8.27746271 12.36375,8.82170493 12.06625,9.20128788 L9.26625,12.7648612 L12.033,15.896908 Z M27.125,3.46767875 L15.75,3.46767875 L15.75,0.867795532 C15.75,0.609540466 15.6345,0.365151443 15.43325,0.200492172 C15.23375,0.0358329015 14.966,-0.0352305732 14.714,0.0167670912 L0.714,2.61665031 C0.29925,2.69291355 0,3.04996418 0,3.46767875 L0,22.533489 C0,22.9495245 0.29925,23.3082542 0.714,23.3845175 L14.714,25.9844007 C14.7665,25.9948002 14.82075,26 14.875,26 C15.078,26 15.27575,25.9306698 15.43325,25.8006756 C15.6345,25.6360163 15.75,25.3898941 15.75,25.1333723 L15.75,22.533489 L27.125,22.533489 C27.608,22.533489 28,22.1452398 28,21.6668613 L28,4.33430649 C28,3.85592798 27.608,3.46767875 27.125,3.46767875 Z" id="Fill-1" fill="#1F8E32"></path>
                <path d="M21.75,12 L23.25,12 C23.664,12 24,11.552 24,11 C24,10.448 23.664,10 23.25,10 L21.75,10 C21.336,10 21,10.448 21,11 C21,11.552 21.336,12 21.75,12" id="Fill-3" fill="#4C87C6"></path>
                <path d="M21.75,16 L23.25,16 C23.664,16 24,15.552 24,15 C24,14.448 23.664,14 23.25,14 L21.75,14 C21.336,14 21,14.448 21,15 C21,15.552 21.336,16 21.75,16" id="Fill-5" fill="#4C87C6"></path>
                <path d="M21.75,19 L23.25,19 C23.664,19 24,18.552 24,18 C24,17.448 23.664,17 23.25,17 L21.75,17 C21.336,17 21,17.448 21,18 C21,18.552 21.336,19 21.75,19" id="Fill-7" fill="#1F8E32"></path>
            </g>
        </g>
    </g>
</svg>