<?xml version="1.0" encoding="UTF-8"?>
<svg width="24px" height="23px" viewBox="0 0 24 23" version="1.1" xmlns="http://www.w3.org/2000/svg">
    <!-- Generator: Sketch 49.3 (51167) - http://www.bohemiancoding.com/sketch -->
    <title>UI/Icon/excel</title>
    <desc>Created with Sketch.</desc>
    <defs></defs>
    <g id="Maquette--Déclaration" stroke="none" stroke-width="1" fill="none" fill-rule="evenodd">
        <g id="Maquette---05-Déclaration-en-cours-utilisateur" transform="translate(-708.000000, -357.000000)" fill="#F8F4F4">
            <g id="UI/Icon/excel-Copy" transform="translate(708.000000, 357.000000)">
                <g id="Page-1">
                    <path d="M22.5,18.4002066 L13.5,18.4002066 L13.5,16.8669421 L15.75,16.8669421 C16.164,16.8669421 16.5,16.5234909 16.5,16.1003099 C16.5,15.6771289 16.164,15.3336777 15.75,15.3336777 L13.5,15.3336777 L13.5,13.8004132 L15.75,13.8004132 C16.164,13.8004132 16.5,13.456962 16.5,13.033781 C16.5,12.6106 16.164,12.2671488 15.75,12.2671488 L13.5,12.2671488 L13.5,10.7338843 L15.75,10.7338843 C16.164,10.7338843 16.5,10.3904331 16.5,9.96725206 C16.5,9.54407107 16.164,9.20061983 15.75,9.20061983 L13.5,9.20061983 L13.5,7.66735536 L15.75,7.66735536 C16.164,7.66735536 16.5,7.32390412 16.5,6.90072313 C16.5,6.47754214 16.164,6.1340909 15.75,6.1340909 L13.5,6.1340909 L13.5,4.60082644 L22.5,4.60082644 L22.5,18.4002066 Z M10.314,14.0626494 C10.587,14.3800351 10.5555,14.8644988 10.2435,15.1435529 C10.101,15.2708138 9.9255,15.3336777 9.75,15.3336777 C9.5415,15.3336777 9.3345,15.2447963 9.186,15.0714895 L7.005,12.5247372 L5.0925,15.0392909 C4.944,15.2325301 4.722,15.3336777 4.5,15.3336777 C4.3395,15.3336777 4.1775,15.2815467 4.0395,15.1727328 C3.7125,14.91203 3.654,14.4305849 3.9075,14.0963812 L5.9985,11.3487233 L3.936,8.9384316 C3.663,8.62104586 3.6945,8.13653429 4.0065,7.85748016 C4.317,7.57847394 4.7895,7.60909131 5.0655,7.92954359 L6.9375,10.1159787 L9.159,7.19664317 C9.414,6.86392479 9.885,6.80259421 10.212,7.06324917 C10.539,7.32237086 10.5975,7.8038159 10.3425,8.13960082 L7.9425,11.2919926 L10.314,14.0626494 Z M23.25,3.06756197 L13.5,3.06756197 L13.5,0.767665278 C13.5,0.539208873 13.401,0.323018584 13.2285,0.17735846 C13.0575,0.0316983359 12.828,-0.0311655071 12.612,0.0148324268 L0.612,2.31472912 C0.2565,2.38219276 0,2.69804524 0,3.06756197 L0,19.9334711 C0,20.3015025 0.2565,20.6188403 0.612,20.6863039 L12.612,22.9862006 C12.657,22.9954002 12.7035,23 12.75,23 C12.924,23 13.0935,22.9386694 13.2285,22.8236746 C13.401,22.6780145 13.5,22.4602909 13.5,22.2333678 L13.5,19.9334711 L23.25,19.9334711 C23.664,19.9334711 24,19.5900198 24,19.1668388 L24,3.83419421 C24,3.41101321 23.664,3.06756197 23.25,3.06756197 Z" id="Fill-1"></path>
                    <path d="M18.6428571,10.6153846 L19.9285714,10.6153846 C20.2834286,10.6153846 20.5714286,10.2190769 20.5714286,9.73076923 C20.5714286,9.24246154 20.2834286,8.84615385 19.9285714,8.84615385 L18.6428571,8.84615385 C18.288,8.84615385 18,9.24246154 18,9.73076923 C18,10.2190769 18.288,10.6153846 18.6428571,10.6153846" id="Fill-3"></path>
                    <path d="M18.6428571,14.1538462 L19.9285714,14.1538462 C20.2834286,14.1538462 20.5714286,13.7575385 20.5714286,13.2692308 C20.5714286,12.7809231 20.2834286,12.3846154 19.9285714,12.3846154 L18.6428571,12.3846154 C18.288,12.3846154 18,12.7809231 18,13.2692308 C18,13.7575385 18.288,14.1538462 18.6428571,14.1538462" id="Fill-5"></path>
                    <path d="M18.6428571,16.8076923 L19.9285714,16.8076923 C20.2834286,16.8076923 20.5714286,16.4113846 20.5714286,15.9230769 C20.5714286,15.4347692 20.2834286,15.0384615 19.9285714,15.0384615 L18.6428571,15.0384615 C18.288,15.0384615 18,15.4347692 18,15.9230769 C18,16.4113846 18.288,16.8076923 18.6428571,16.8076923" id="Fill-7"></path>
                </g>
            </g>
        </g>
    </g>
</svg>