<?xml version="1.0" encoding="UTF-8"?>
<svg width="24px" height="28px" viewBox="0 0 24 28" version="1.1" xmlns="http://www.w3.org/2000/svg">
    <!-- Generator: Sketch 47.1 (45422) - http://www.bohemiancoding.com/sketch -->
    <title>Shape</title>
    <desc>Created with Sketch.</desc>
    <defs></defs>
    <g id="Symbols" stroke="none" stroke-width="1" fill="none" fill-rule="evenodd">
        <g id="UI/Header" transform="translate(-1110.000000, -62.000000)" fill-rule="nonzero" fill="#4C87C6">
            <g id="Group" transform="translate(542.000000, 62.000000)">
                <path d="M578.615385,25.2 C578.360615,25.2037333 578.150154,25.4090667 578.153846,25.6666667 L578.153846,26.1333333 C578.153846,27.16 578.984615,28 580,28 C581.015385,28 581.846154,27.16 581.846154,26.1333333 L581.846154,25.6666667 C581.846154,25.3558667 581.615385,25.2 581.384615,25.2 C581.153846,25.2 580.923077,25.3512 580.923077,25.6666667 L580.923077,26.1333333 C580.923077,26.6588 580.519692,27.0666667 580,27.0666667 C579.480308,27.0666667 579.076923,26.6588 579.076923,26.1333333 L579.076923,25.6666667 C579.080615,25.4034667 578.875692,25.1962667 578.615385,25.2 Z M580,0 C578.476923,0 577.230769,1.26 577.230769,2.8 L577.230769,3.26666667 C577.230769,3.87333333 578.153846,3.88266667 578.153846,3.26666667 L578.153846,2.8 C578.153846,1.764 578.975385,0.933333333 580,0.933333333 C581.024615,0.933333333 581.846154,1.764 581.846154,2.8 L581.846154,3.26666667 C581.846154,3.87706667 582.769231,3.88266667 582.769231,3.26666667 L582.769231,2.8 C582.769231,1.26 581.523077,0 580,0 Z M586.923077,2.8 C589.723692,2.8 592,5.10346667 592,7.93333333 C592,8.554 591.076923,8.554 591.076923,7.93333333 C591.076923,5.60933333 589.225231,3.73333333 586.923077,3.73333333 C586.307385,3.73333333 586.311077,2.8 586.923077,2.8 Z M573.076923,2.8 C570.278154,2.8 568,5.10346667 568,7.93333333 C568,8.554 568.923077,8.554 568.923077,7.93333333 C568.923077,5.60933333 570.778462,3.73333333 573.076923,3.73333333 C573.693538,3.73333333 573.690769,2.8 573.076923,2.8 Z M580,4.66666667 C576.012308,4.66666667 573.826462,6.356 572.764923,8.4952 C571.703385,10.6344 571.692308,13.1562667 571.692308,14.9333333 C571.692308,16.8 571.692308,20.3625333 569.033846,23.4957333 C568.916143,23.6341326 568.889048,23.8292144 568.964497,23.9950403 C569.039947,24.1608662 569.204089,24.266992 569.384615,24.2666667 L590.615385,24.2666667 C590.795911,24.266992 590.960053,24.1608662 591.035503,23.9950403 C591.110952,23.8292144 591.083857,23.6341326 590.966154,23.4957333 C588.307692,20.3625333 588.307692,16.8 588.307692,14.9333333 C588.307692,13.1562667 588.295692,10.6344 587.235077,8.4952 C586.173538,6.356 583.987692,4.66666667 580,4.66666667 Z M580,5.6 C583.742154,5.6 585.480308,7.04013333 586.408923,8.91333333 C587.338462,10.7893333 587.384615,13.1674667 587.384615,14.9333333 C587.384615,16.6618667 587.483385,20.1292 589.771692,23.3333333 L570.228308,23.3333333 C572.517538,20.1292 572.615385,16.6618667 572.615385,14.9333333 C572.615385,13.1665333 572.661538,10.7893333 573.591077,8.91333333 C574.519692,7.04106667 576.258769,5.6 580,5.6 Z" id="Shape"></path>
            </g>
        </g>
    </g>
</svg>