<?xml version="1.0" encoding="UTF-8"?>
<svg width="19px" height="19px" viewBox="0 0 19 19" version="1.1" xmlns="http://www.w3.org/2000/svg">
    <!-- Generator: Sketch 49.3 (51167) - http://www.bohemiancoding.com/sketch -->
    <title>Fill 1</title>
    <desc>Created with Sketch.</desc>
    <defs></defs>
    <g id="Symbols" stroke="none" stroke-width="1" fill="none" fill-rule="evenodd">
        <g id="UI/Icon/Info" fill="#4C87C6">
            <g id="Page-1">
                <path d="M11.3125,5.9458 C11.0285,6.2068 10.6875,6.3398 10.2895,6.3398 C9.8955,6.3398 9.5505,6.2068 9.2665,5.9458 C8.9845,5.6838 8.8395,5.3638 8.8395,4.9888 C8.8395,4.6168 8.9845,4.2968 9.2665,4.0308 C9.5505,3.7698 9.8955,3.6368 10.2895,3.6368 C10.6875,3.6368 11.0285,3.7698 11.3125,4.0308 C11.5935,4.2968 11.7355,4.6168 11.7355,4.9888 C11.7355,5.3638 11.5935,5.6838 11.3125,5.9458 Z M11.4175,14.6498 C10.9295,14.8398 10.5425,14.9858 10.2535,15.0858 C9.9645,15.1878 9.6285,15.2388 9.2465,15.2388 C8.6565,15.2388 8.1955,15.0938 7.8715,14.8048 C7.5425,14.5198 7.3825,14.1538 7.3825,13.7108 C7.3825,13.5388 7.3955,13.3638 7.4175,13.1838 C7.4415,13.0038 7.4805,12.8048 7.5355,12.5778 L8.1455,10.4258 C8.1995,10.2188 8.2465,10.0248 8.2815,9.8438 C8.3165,9.6558 8.3355,9.4888 8.3355,9.3358 C8.3355,9.0638 8.2775,8.8708 8.1645,8.7618 C8.0505,8.6528 7.8355,8.6018 7.5165,8.6018 C7.3595,8.6018 7.1955,8.6248 7.0305,8.6718 C6.8675,8.7228 6.7275,8.7698 6.6095,8.8128 L6.7705,8.1528 C7.1675,7.9888 7.5505,7.8518 7.9145,7.7348 C8.2775,7.6168 8.6215,7.5588 8.9455,7.5588 C9.5305,7.5588 9.9805,7.7028 10.2965,7.9848 C10.6135,8.2658 10.7745,8.6328 10.7745,9.0858 C10.7745,9.1798 10.7615,9.3438 10.7425,9.5778 C10.7185,9.8178 10.6795,10.0308 10.6215,10.2268 L10.0155,12.3708 C9.9645,12.5428 9.9215,12.7418 9.8785,12.9608 C9.8395,13.1798 9.8205,13.3478 9.8205,13.4608 C9.8205,13.7458 9.8875,13.9428 10.0115,14.0428 C10.1405,14.1498 10.3605,14.1988 10.6755,14.1988 C10.8245,14.1988 10.9895,14.1718 11.1755,14.1208 C11.3605,14.0708 11.4965,14.0248 11.5825,13.9858 L11.4175,14.6498 Z M9.4495,-0.0002 C4.2305,-0.0002 -0.0005,4.2308 -0.0005,9.4488 C-0.0005,14.6678 4.2305,18.9038 9.4495,18.9038 C14.6675,18.9038 18.9035,14.6678 18.9035,9.4488 C18.9035,4.2308 14.6675,-0.0002 9.4495,-0.0002 Z" id="Fill-1"></path>
            </g>
        </g>
    </g>
</svg>