<svg width="30" height="30" xmlns="http://www.w3.org/2000/svg" xmlns:xlink="http://www.w3.org/1999/xlink"><defs><filter x="-41.3%" y="-28%" width="182.6%" height="164.6%" filterUnits="objectBoundingBox" id="a"><feOffset dy="1" in="SourceAlpha" result="shadowOffsetOuter1"/><feGaussianBlur stdDeviation="3" in="shadowOffsetOuter1" result="shadowBlurOuter1"/><feColorMatrix values="0 0 0 0 0 0 0 0 0 0 0 0 0 0 0 0 0 0 0.24 0" in="shadowBlurOuter1" result="shadowMatrixOuter1"/><feMerge><feMergeNode in="shadowMatrixOuter1"/><feMergeNode in="SourceGraphic"/></feMerge></filter><path id="b" d="M0 .03h22.94v30.276H0z"/><path d="M21.666 27.783a1.27 1.27 0 0 1-1.275 1.261H2.55a1.27 1.27 0 0 1-1.275-1.261V2.553A1.27 1.27 0 0 1 2.55 1.29h12.745v3.784c0 1.392 1.143 2.523 2.548 2.523h3.824v20.185zm-5.098-25.6l4.197 4.154h-2.923a1.27 1.27 0 0 1-1.274-1.262V2.183zM16.381.214a.64.64 0 0 0-.45-.185H2.549C1.143.03 0 1.161 0 2.552v25.231c0 1.391 1.143 2.523 2.549 2.523H20.39c1.406 0 2.55-1.132 2.55-2.523V6.968a.627.627 0 0 0-.188-.446L16.381.214z" id="e"/><filter x="-41.4%" y="-28.1%" width="182.8%" height="162.8%" filterUnits="objectBoundingBox" id="d"><feOffset dy="1" in="SourceAlpha" result="shadowOffsetOuter1"/><feGaussianBlur stdDeviation="3" in="shadowOffsetOuter1" result="shadowBlurOuter1"/><feColorMatrix values="0 0 0 0 0 0 0 0 0 0 0 0 0 0 0 0 0 0 0.24 0" in="shadowBlurOuter1"/></filter><path d="M17.842 19.857c0 .284 0 .401-.59.405-.174-.037-.576-.271-1.071-.605.18-.02.312-.03.387-.03.942 0 1.209.092 1.274.23m-7.158-.328c.04-.11.079-.22.116-.333l.64-1.9c.264.288.549.583.854.885.12.118.416.385.81.718-.785.169-1.62.38-2.42.63m-.488-6.78c0-1.321.414-1.321.637-1.321.45 0 .637 0 .637 1.261 0 .266-.179.931-.507 1.97-.5-.763-.767-1.416-.767-1.91m-4.46 11.294c-.365 0-.611-.17-.638-.203 0-.447 1.347-1.079 2.65-1.69L8 22.032c-.957 1.374-1.903 2.01-2.265 2.01m8.984-5.451c-.59-.46-1.15-.932-1.524-1.302-.485-.48-.918-.946-1.294-1.39.587-1.793.844-2.717.844-3.21 0-2.094-.765-2.523-1.912-2.523-.872 0-1.912.448-1.912 2.584 0 .94.521 2.083 1.554 3.411-.253.763-.55 1.644-.884 2.636-.16.476-.334.917-.519 1.325-.15.066-.295.133-.436.203-.506.25-.987.476-1.433.685-2.036.954-3.38 1.585-3.38 2.83 0 .904.993 1.464 1.912 1.464 1.185 0 2.974-1.566 4.28-4.205 1.358-.53 3.044-.922 4.375-1.168 1.067.812 2.245 1.589 2.815 1.589 1.58 0 1.912-.905 1.912-1.663 0-1.491-1.721-1.491-2.549-1.491-.257 0-.947.075-1.849.225" id="g"/><filter x="-62.1%" y="-56.1%" width="224.2%" height="225.5%" filterUnits="objectBoundingBox" id="f"><feOffset dy="1" in="SourceAlpha" result="shadowOffsetOuter1"/><feGaussianBlur stdDeviation="3" in="shadowOffsetOuter1" result="shadowBlurOuter1"/><feColorMatrix values="0 0 0 0 0 0 0 0 0 0 0 0 0 0 0 0 0 0 0.24 0" in="shadowBlurOuter1"/></filter></defs><g fill="none" fill-rule="evenodd"><g filter="url(#a)" transform="translate(4 .044)"><mask id="c" fill="#fff"><use xlink:href="#b"/></mask><g mask="url(#c)"><use fill="#000" filter="url(#d)" xlink:href="#e"/><use fill="#358ED7" xlink:href="#e"/></g></g><g transform="translate(4)"><use fill="#000" filter="url(#f)" xlink:href="#g"/><use fill="#358ED7" xlink:href="#g"/></g></g></svg>