<svg width="30" height="30" xmlns="http://www.w3.org/2000/svg" xmlns:xlink="http://www.w3.org/1999/xlink"><defs><path id="a" d="M0 .03h22.94v30.276H0z"/><path d="M21.666 25.63l-3.373-3.34a.641.641 0 0 0-.9 0l-3.374 3.34-1.461-1.447a.642.642 0 0 0-.901 0l-2.736 2.708v-7.939h12.745v6.677zm0 3.415H8.92v-.37l3.186-3.154 2.099 2.077a.642.642 0 0 0 .9 0 .626.626 0 0 0 0-.892l-.186-.185 2.922-2.892 3.824 3.784v1.632zM7.647 18.32v4.416H2.549a1.27 1.27 0 0 1-1.275-1.262V2.552A1.27 1.27 0 0 1 2.55 1.291h8.921v2.523c0 1.391 1.144 2.523 2.55 2.523h2.548V17.69H8.284a.634.634 0 0 0-.637.63zm5.098-16.138l2.922 2.892h-1.648a1.27 1.27 0 0 1-1.274-1.261v-1.63zm9.558 15.508h-4.46V5.706a.627.627 0 0 0-.187-.446L12.558.214a.64.64 0 0 0-.45-.185h-9.56C1.145.03 0 1.161 0 2.552v18.923c0 1.392 1.144 2.523 2.549 2.523h5.098v5.677c0 .349.285.631.637.631h14.02a.634.634 0 0 0 .636-.63V18.321a.634.634 0 0 0-.637-.631z" id="d"/><filter x="-41.4%" y="-28.1%" width="182.8%" height="162.8%" filterUnits="objectBoundingBox" id="c"><feOffset dy="1" in="SourceAlpha" result="shadowOffsetOuter1"/><feGaussianBlur stdDeviation="3" in="shadowOffsetOuter1" result="shadowBlurOuter1"/><feColorMatrix values="0 0 0 0 0 0 0 0 0 0 0 0 0 0 0 0 0 0 0.24 0" in="shadowBlurOuter1"/></filter><path d="M14.02 22.781a1.268 1.268 0 0 1-1.275-1.261c0-.697.57-1.262 1.274-1.262.704 0 1.275.565 1.275 1.262 0 .696-.571 1.261-1.275 1.261z" id="f"/><filter x="-372.7%" y="-336.9%" width="845.4%" height="853.1%" filterUnits="objectBoundingBox" id="e"><feOffset dy="1" in="SourceAlpha" result="shadowOffsetOuter1"/><feGaussianBlur stdDeviation="3" in="shadowOffsetOuter1" result="shadowBlurOuter1"/><feColorMatrix values="0 0 0 0 0 0 0 0 0 0 0 0 0 0 0 0 0 0 0.24 0" in="shadowBlurOuter1"/></filter></defs><g fill="none" fill-rule="evenodd"><g transform="translate(4 .044)"><mask id="b" fill="#fff"><use xlink:href="#a"/></mask><g mask="url(#b)"><use fill="#000" filter="url(#c)" xlink:href="#d"/><use fill="#358ED7" xlink:href="#d"/></g></g><g transform="translate(4)"><use fill="#000" filter="url(#e)" xlink:href="#f"/><use fill="#358ED7" xlink:href="#f"/></g></g></svg>