<?xml version="1.0" encoding="UTF-8"?>
<svg width="22px" height="20px" viewBox="0 0 22 20" version="1.1" xmlns="http://www.w3.org/2000/svg" xmlns:xlink="http://www.w3.org/1999/xlink">
    <!-- Generator: Sketch 49.3 (51167) - http://www.bohemiancoding.com/sketch -->
    <title>Fill 1</title>
    <desc>Created with Sketch.</desc>
    <defs></defs>
    <g id="Maquette--Déclaration" stroke="none" stroke-width="1" fill="none" fill-rule="evenodd">
        <g id="Maquette---05-Déclaration-en-cours-utilisateur" transform="translate(-927.000000, -824.000000)" fill="#4C87C6">
            <g id="Page-1" transform="translate(927.000000, 824.000000)">
                <path d="M20.2257311,1.62968546 C17.9456025,-0.564752711 14.2959824,-0.543659855 12.0464964,1.69687011 L1.62956128,12.0565869 C0.843851885,12.8378038 0,14.2572748 0,15.5298771 C0,16.7227953 0.469854216,17.8454039 1.31684894,18.6883369 C2.1669865,19.5336135 3.29605089,20 4.49975768,20 C5.70267876,19.9968751 6.83174315,19.5336135 7.68188071,18.6883369 L16.6751104,9.74652867 C17.2918923,9.13014856 17.6289616,8.27862218 17.6014618,7.40912781 C17.5708191,6.60994296 17.2423926,5.85919356 16.6751104,5.29437376 C16.0763998,4.69908651 15.2812619,4.37253787 14.4342672,4.37253787 C13.5904153,4.37253787 12.7952774,4.69908651 12.1965669,5.29437376 L5.3129669,12.1425208 C5.1377537,12.3128261 5.03011152,12.5479723 5.03011152,12.8112424 C5.03011152,13.3299704 5.45125175,13.7471402 5.97296279,13.7471402 C6.2338183,13.7471402 6.46638828,13.6440196 6.63845864,13.4729331 L13.5322728,6.61853635 C13.7774142,6.37479669 14.118412,6.25527051 14.4554814,6.26152024 C14.7799793,6.26464511 15.1060487,6.38651494 15.3425473,6.62166122 C15.5727601,6.84743289 15.7047593,7.15288868 15.7173306,7.4731876 C15.7291163,7.8302037 15.59476,8.16925182 15.3425473,8.41924122 L6.35010329,17.3602682 C5.85589209,17.8516536 5.19903904,18.1235171 4.49975768,18.1235171 C3.80283345,18.1235171 3.1459804,17.8516536 2.65176919,17.3602682 C2.15755799,16.8720077 1.88413112,16.2189104 1.88413112,15.5298771 C1.88413112,14.9463081 2.37834232,13.9643185 2.96448153,13.3815307 L13.3814166,3.02103269 C14.9072643,1.50390954 17.3838203,1.49219129 18.9245964,2.9843155 L19.0228101,3.08509247 C20.499158,4.62018361 20.4763724,7.06148631 18.9615247,8.57157851 L10.3399356,17.1438711 C10.1655081,17.3149576 10.0578659,17.5501039 10.0578659,17.8118116 C10.0578659,18.3281959 10.4813633,18.7492718 11.0030743,18.7492718 C11.260787,18.7492718 11.4972855,18.64537 11.666213,18.4750647 L20.2933021,9.89964717 C22.5585023,7.64739896 22.5679308,3.9944289 20.3270876,1.73046243 L20.2257311,1.62968546 Z" id="Fill-1"></path>
            </g>
        </g>
    </g>
</svg>