<?xml version="1.0" encoding="UTF-8"?>
<svg width="30px" height="30px" viewBox="0 0 30 30" version="1.1" xmlns="http://www.w3.org/2000/svg" xmlns:xlink="http://www.w3.org/1999/xlink">
    <!-- Generator: Sketch 49.3 (51167) - http://www.bohemiancoding.com/sketch -->
    <title>UI/Icon/Document/PDF</title>
    <desc>Created with Sketch.</desc>
    <defs>
        <filter x="-41.3%" y="-28.0%" width="182.6%" height="164.6%" filterUnits="objectBoundingBox" id="filter-1">
            <feOffset dx="0" dy="1" in="SourceAlpha" result="shadowOffsetOuter1"></feOffset>
            <feGaussianBlur stdDeviation="3" in="shadowOffsetOuter1" result="shadowBlurOuter1"></feGaussianBlur>
            <feColorMatrix values="0 0 0 0 0   0 0 0 0 0   0 0 0 0 0  0 0 0 0.24 0" type="matrix" in="shadowBlurOuter1" result="shadowMatrixOuter1"></feColorMatrix>
            <feMerge>
                <feMergeNode in="shadowMatrixOuter1"></feMergeNode>
                <feMergeNode in="SourceGraphic"></feMergeNode>
            </feMerge>
        </filter>
        <polygon id="path-2" points="0 0.0294190754 22.9401701 0.0294190754 22.9401701 30.3060679 0 30.3060679"></polygon>
        <path d="M21.665761,27.7827539 C21.665761,28.4783155 21.0940468,29.0442261 20.3913519,29.0442261 L2.54887792,29.0442261 C1.84648182,29.0442261 1.27446883,28.4783155 1.27446883,27.7827539 L1.27446883,2.55242264 C1.27446883,1.85715675 1.84648182,1.29087651 2.54887792,1.29087651 L15.2935662,1.29087651 L15.2935662,5.07544098 C15.2935662,6.46715544 16.4367708,7.59838541 17.8424591,7.59838541 L21.665761,7.59838541 L21.665761,27.7827539 Z M16.5679753,2.18283626 L20.7647286,6.3369132 L17.8424591,6.3369132 C17.140063,6.3369132 16.5679753,5.77100254 16.5679753,5.07544098 L16.5679753,2.18283626 Z M16.381287,0.214197479 C16.2617318,0.0957820049 16.1001344,0.029404292 15.9306214,0.029404292 L2.54887792,0.029404292 C1.14318961,0.029404292 -1.49350649e-05,1.16100385 -1.49350649e-05,2.55242264 L-1.49350649e-05,27.7830496 C-1.49350649e-05,29.1744684 1.14318961,30.3060679 2.54887792,30.3060679 L20.3913519,30.3060679 C21.797339,30.3060679 22.9401701,29.1744684 22.9401701,27.7827539 L22.9401701,6.96779714 C22.9401701,6.80037451 22.8731117,6.64012186 22.7534818,6.52170638 L16.381287,0.214197479 Z" id="path-4"></path>
        <filter x="-41.4%" y="-28.1%" width="182.8%" height="162.8%" filterUnits="objectBoundingBox" id="filter-5">
            <feOffset dx="0" dy="1" in="SourceAlpha" result="shadowOffsetOuter1"></feOffset>
            <feGaussianBlur stdDeviation="3" in="shadowOffsetOuter1" result="shadowBlurOuter1"></feGaussianBlur>
            <feColorMatrix values="0 0 0 0 0   0 0 0 0 0   0 0 0 0 0  0 0 0 0.24 0" type="matrix" in="shadowBlurOuter1"></feColorMatrix>
        </filter>
        <path d="M17.8424815,19.8571811 C17.8424815,20.1407278 17.8424815,20.2582562 17.251501,20.262026 C17.0776568,20.2250674 16.6762769,19.9908974 16.1809555,19.657087 C16.3609231,19.637425 16.4933224,19.627668 16.5679977,19.627668 C17.5096536,19.627668 17.7765432,19.7185862 17.8424815,19.8571811 M10.6841049,19.5289145 C10.7241308,19.419443 10.7625886,19.3085671 10.7999263,19.1962867 C11.0364977,18.4940726 11.2494718,17.8634104 11.4390724,17.295504 C11.7036471,17.5836335 11.9886081,17.8787113 12.2943289,18.181033 C12.4136601,18.2994484 12.7099718,18.5656245 13.1044068,18.8988436 C12.3191211,19.0680403 11.4834295,19.278261 10.6841049,19.5289145 M10.1958029,12.7495177 C10.1958029,11.427729 10.6103256,11.427729 10.8329328,11.427729 C11.2835984,11.427729 11.4702867,11.427729 11.4702867,12.6892012 C11.4702867,12.9551555 11.2911406,13.620411 10.9630172,14.6589487 C10.4627672,13.8964181 10.1958029,13.2430633 10.1958029,12.7495177 M5.73514708,24.0427468 C5.37110487,24.0427468 5.12460162,23.8726631 5.09779318,23.8400656 C5.09779318,23.3927922 6.44516006,22.7610212 7.74816981,22.150095 C7.83098474,22.1110666 7.91499448,22.0724079 8.00019903,22.0322708 C7.04316006,23.4060973 6.09657565,24.0427468 5.73514708,24.0427468 M14.7192607,18.5907564 C14.1291016,18.1313606 13.5684393,17.6587335 13.1950627,17.2891471 C12.7096731,16.8086848 12.2773776,16.3432278 11.9013873,15.8997241 C12.487738,14.1063432 12.7446958,13.1817859 12.7446958,12.6892012 C12.7446958,10.5952726 11.9804685,10.1659611 10.8329328,10.1659611 C9.9613224,10.1659611 8.92139383,10.6144172 8.92139383,12.7495177 C8.92139383,13.6909281 9.44210487,14.8333935 10.4747153,16.1613173 C10.2220886,16.9244393 9.92510487,17.804794 9.59145552,18.7972074 C9.43097825,19.2733825 9.25683539,19.7142251 9.07246201,20.1222484 C8.92258864,20.1881087 8.77697175,20.2550778 8.63643279,20.3246339 C8.12968604,20.5755831 7.64870227,20.800809 7.20266656,21.0104384 C5.16746526,21.9638234 3.82330942,22.5947074 3.82330942,23.8400656 C3.82330942,24.7443696 4.81596851,25.304219 5.73514708,25.304219 C6.92002045,25.304219 8.70901721,23.737838 10.0158354,21.0990652 C11.3725367,20.5692262 13.0588549,20.1767994 14.3898679,19.9310984 C15.4566795,20.7430057 16.6345334,21.5197284 17.2054263,21.5197284 C18.7852575,21.5197284 19.1168906,20.6154245 19.1168906,19.8571811 C19.1168906,18.3658262 17.3955497,18.3658262 16.5679977,18.3658262 C16.3110399,18.3658262 15.621488,18.4412218 14.7192607,18.5907564" id="path-6"></path>
        <filter x="-62.1%" y="-56.1%" width="224.2%" height="225.5%" filterUnits="objectBoundingBox" id="filter-7">
            <feOffset dx="0" dy="1" in="SourceAlpha" result="shadowOffsetOuter1"></feOffset>
            <feGaussianBlur stdDeviation="3" in="shadowOffsetOuter1" result="shadowBlurOuter1"></feGaussianBlur>
            <feColorMatrix values="0 0 0 0 0   0 0 0 0 0   0 0 0 0 0  0 0 0 0.24 0" type="matrix" in="shadowBlurOuter1"></feColorMatrix>
        </filter>
    </defs>
    <g id="UI/Icon/Document/PDF" stroke="none" stroke-width="1" fill="none" fill-rule="evenodd">
        <g id="Page-1-Copy" transform="translate(4.000000, 0.000000)">
            <g id="Group-3" filter="url(#filter-1)" transform="translate(0.000000, 0.044498)">
                <mask id="mask-3" fill="white">
                    <use xlink:href="#path-2"></use>
                </mask>
                <g id="Clip-2"></g>
                <g id="Fill-1" mask="url(#mask-3)">
                    <use fill="black" fill-opacity="1" filter="url(#filter-5)" xlink:href="#path-4"></use>
                    <use fill="#358ED7" fill-rule="evenodd" xlink:href="#path-4"></use>
                </g>
            </g>
            <g id="Fill-4">
                <use fill="black" fill-opacity="1" filter="url(#filter-7)" xlink:href="#path-6"></use>
                <use fill="#358ED7" fill-rule="evenodd" xlink:href="#path-6"></use>
            </g>
        </g>
    </g>
</svg>