<?xml version="1.0" encoding="UTF-8"?>
<svg width="30px" height="30px" viewBox="0 0 30 30" version="1.1" xmlns="http://www.w3.org/2000/svg" xmlns:xlink="http://www.w3.org/1999/xlink">
    <!-- Generator: Sketch 49.3 (51167) - http://www.bohemiancoding.com/sketch -->
    <title>UI/Icon/Document/Video</title>
    <desc>Created with Sketch.</desc>
    <defs>
        <polygon id="path-1" points="0 -5.68434189e-14 22.9401701 -5.68434189e-14 22.9401701 29.9708634 0 29.9708634"></polygon>
        <path d="M21.665761,28.3359366 L18.764774,26.914522 C18.5667351,26.8182293 18.3327773,26.8282537 18.1450435,26.941961 C17.9570857,27.0560341 17.8424591,27.2566683 17.8424591,27.4733268 L17.8424591,28.0975463 C17.8424591,28.441961 17.5569753,28.7220585 17.2051799,28.7220585 L9.64012143,28.7220585 C9.37875779,28.4596683 8.92137143,27.1469122 8.92137143,24.9754976 C8.92137143,22.711522 9.41900779,21.3804 9.55842662,21.2292293 L17.2054786,21.2292293 C17.5569753,21.2292293 17.8424591,21.5090341 17.8424591,21.8537415 L17.8424591,22.477961 C17.8424591,22.6946195 17.9570857,22.8950341 18.1450435,23.0090341 C18.3321799,23.1219366 18.5664364,23.1316683 18.764774,23.0364732 L21.6660597,21.6153512 L21.6660597,28.3359366 L21.665761,28.3359366 Z M7.87068961,22.477961 L2.54887792,22.477961 C1.84648182,22.477961 1.27446883,21.9177659 1.27446883,21.2292293 L1.27446883,2.49752195 C1.27446883,1.80927805 1.84648182,1.24871707 2.54887792,1.24871707 L11.4702643,1.24871707 L11.4702643,3.74625366 C11.4702643,5.12361951 12.6133942,6.24379024 14.0192318,6.24379024 L16.5679753,6.24379024 L16.5679753,19.9804976 L9.55842662,19.9804976 C8.57950779,19.9804976 8.10405,21.2252049 7.87068961,22.477961 Z M12.7446734,2.13166829 L15.6669429,4.99505854 L14.0192318,4.99505854 C13.3166864,4.99505854 12.7446734,4.43479024 12.7446734,3.74625366 L12.7446734,2.13166829 Z M22.6381084,20.0736439 C22.4498519,19.9590585 22.2152968,19.9493268 22.0181539,20.0462049 L19.0801279,21.4859122 C18.9478032,20.8359366 18.4689851,20.3094732 17.8424591,20.0913512 L17.8424591,5.61957073 C17.8424591,5.45376585 17.775326,5.29513171 17.6557708,5.17798537 L12.5579851,0.182912195 C12.4385045,0.0656926829 12.2769071,-1.46341463e-05 12.1073195,-1.46341463e-05 L2.54887792,-1.46341463e-05 C1.14318961,-1.46341463e-05 -1.49350649e-05,1.1201561 -1.49350649e-05,2.49752195 L-1.49350649e-05,21.2292293 C-1.49350649e-05,22.6065951 1.14318961,23.7267659 2.54887792,23.7267659 L7.70498506,23.7267659 C7.65278701,24.3389854 7.64696234,24.8271805 7.64696234,24.9754976 C7.64696234,25.4865951 7.70028052,29.9708634 9.55842662,29.9708634 L17.2054786,29.9708634 C18.1312286,29.9708634 18.9053877,29.3225707 19.0801279,28.4651561 L22.0181539,29.9047902 C22.108287,29.948839 22.2055143,29.9708634 22.3031149,29.9708634 C22.4195338,29.9708634 22.5358779,29.9396927 22.6378097,29.8773512 C22.8258422,29.7633512 22.9401701,29.5627171 22.9401701,29.3463512 L22.9401701,20.6050098 C22.9401701,20.3883512 22.8258422,20.1877171 22.6381084,20.0736439 Z" id="path-3"></path>
        <filter x="-41.4%" y="-28.4%" width="182.8%" height="163.4%" filterUnits="objectBoundingBox" id="filter-4">
            <feOffset dx="0" dy="1" in="SourceAlpha" result="shadowOffsetOuter1"></feOffset>
            <feGaussianBlur stdDeviation="3" in="shadowOffsetOuter1" result="shadowBlurOuter1"></feGaussianBlur>
            <feColorMatrix values="0 0 0 0 0   0 0 0 0 0   0 0 0 0 0  0 0 0 0.24 0" type="matrix" in="shadowBlurOuter1"></feColorMatrix>
        </filter>
    </defs>
    <g id="UI/Icon/Document/Video" stroke="none" stroke-width="1" fill="none" fill-rule="evenodd">
        <g id="Page-1" transform="translate(5.000000, 0.000000)">
            <mask id="mask-2" fill="white">
                <use xlink:href="#path-1"></use>
            </mask>
            <g id="Clip-2"></g>
            <g id="Fill-1" mask="url(#mask-2)">
                <use fill="black" fill-opacity="1" filter="url(#filter-4)" xlink:href="#path-3"></use>
                <use fill="#358ED7" fill-rule="evenodd" xlink:href="#path-3"></use>
            </g>
        </g>
    </g>
</svg>