<?xml version="1.0" encoding="UTF-8"?>
<svg width="23px" height="18px" viewBox="0 0 23 18" version="1.1" xmlns="http://www.w3.org/2000/svg" xmlns:xlink="http://www.w3.org/1999/xlink">
    <!-- Generator: Sketch 47.1 (45422) - http://www.bohemiancoding.com/sketch -->
    <title>Page 1</title>
    <desc>Created with Sketch.</desc>
    <defs>
        <polygon id="path-1" points="0 0.00464373951 14.9955 0.00464373951 14.9955 17.71875 0 17.71875"></polygon>
    </defs>
    <g id="Symbols" stroke="none" stroke-width="1" fill="none" fill-rule="evenodd">
        <g id="UI/Header" transform="translate(-1167.000000, -68.000000)">
            <g id="Group" transform="translate(542.000000, 62.000000)">
                <g id="Page-1" transform="translate(625.000000, 6.000000)">
                    <g id="Group-3">
                        <mask id="mask-2" fill="white">
                            <use xlink:href="#path-1"></use>
                        </mask>
                        <g id="Clip-2"></g>
                        <path d="M0,2.95856152 L0,14.7646003 C0,16.391574 1.28769231,17.7187559 2.86615385,17.7187559 L12.1246154,17.7187559 C13.7030769,17.7187559 14.9907692,16.391574 14.9907692,14.7646003 L14.9907692,12.8524023 C14.9907692,12.5290649 14.7369808,12.2673268 14.4230769,12.2673268 C14.1091731,12.2673268 13.8553846,12.5290649 13.8553846,12.8524023 L13.8553846,14.7646003 C13.8553846,15.749418 13.0754423,16.5532427 12.1198846,16.5532427 L2.86615385,16.5532427 C1.91082692,16.5532427 1.13088462,15.749418 1.13088462,14.7646003 L1.13088462,2.95856152 C1.13088462,1.97398172 1.91082692,1.17015695 2.86615385,1.17015695 L12.1246154,1.17015695 C13.0799423,1.17015695 13.8598846,1.97398172 13.8598846,2.95856152 L13.8598846,4.87075951 C13.8598846,5.19427535 14.1139038,5.45583501 14.4275769,5.45583501 C14.7415385,5.45583501 14.9955,5.19427535 14.9955,4.87075951 L14.9955,2.95856152 C14.9955,1.33176622 13.7078077,0.00464373951 12.1291154,0.00464373951 L2.86615385,0.00464373951 C1.28769231,0.00464373951 0,1.32689059 0,2.95856152" id="Fill-1" fill="#4C87C6" mask="url(#mask-2)"></path>
                    </g>
                    <g id="Group-6" transform="translate(10.000000, 5.000000)" fill="#4C87C6">
                        <path d="M8.19829665,8.83157286 C8.30804137,8.94377962 8.44994278,9 8.59659331,9 C8.74301496,9 8.88491637,8.94377962 8.99466109,8.83157286 L12.8352113,4.90486281 C13.0549296,4.68021529 13.0549296,4.31984321 12.8352113,4.09519569 L8.99466109,0.168485644 C8.77494278,-0.0561618814 8.42247799,-0.0561618814 8.20275968,0.168485644 C7.98304137,0.39313317 7.98304137,0.753505242 8.20275968,0.978152768 L11.0866769,3.92676855 L0.563028169,3.92676855 C0.251875,3.92676855 0,4.18411867 0,4.50242783 C0,4.82050299 0.251875,5.07808712 0.563028169,5.07808712 L11.081985,5.07808712 L8.19829665,8.02646889 C7.97857835,8.24655326 7.97857835,8.61148848 8.19829665,8.83157286" id="Fill-4"></path>
                    </g>
                </g>
            </g>
        </g>
    </g>
</svg>