<?xml version="1.0" encoding="UTF-8"?>
<svg width="30px" height="30px" viewBox="0 0 30 30" version="1.1" xmlns="http://www.w3.org/2000/svg" xmlns:xlink="http://www.w3.org/1999/xlink">
    <!-- Generator: Sketch 49.3 (51167) - http://www.bohemiancoding.com/sketch -->
    <title>UI/Icon/Document/Jpeg</title>
    <desc>Created with Sketch.</desc>
    <defs>
        <polygon id="path-1" points="0 0.0294190754 22.9404688 0.0294190754 22.9404688 30.3060827 0 30.3060827"></polygon>
        <path d="M21.665761,25.6293367 L18.2931247,22.2909369 C18.0440078,22.0443489 17.6409851,22.0443489 17.3921669,22.2909369 L14.0192318,25.6293367 L12.5579851,24.1830713 C12.3091669,23.936779 11.9057708,23.936779 11.6569526,24.1830713 L8.92137143,26.8911046 L8.92137143,18.9522415 L21.6660597,18.9522415 L21.6660597,25.6293367 L21.665761,25.6293367 Z M21.665761,29.0445366 L8.92137143,29.0445366 L8.92137143,28.6749502 L12.1073195,25.5210479 L14.2059201,27.5982712 C14.4547383,27.8445636 14.8580597,27.8445636 15.1068779,27.5982712 C15.3556961,27.3516832 15.3556961,26.9526038 15.1068779,26.7063114 L14.9201896,26.5212226 L17.8424591,23.6286918 L21.665761,27.4131823 L21.665761,29.0445366 Z M7.64696234,18.3213575 L7.64696234,22.736732 L2.54887792,22.736732 C1.84588442,22.736732 1.27446883,22.1708214 1.27446883,21.4752598 L1.27446883,2.55243742 C1.27446883,1.85717153 1.84588442,1.29089129 2.54887792,1.29089129 L11.4702643,1.29089129 L11.4702643,3.81390964 C11.4702643,5.20532842 12.6139916,6.33692798 14.0192318,6.33692798 L16.5679753,6.33692798 L16.5679753,17.6907692 L8.28401753,17.6907692 C7.93192338,17.6907692 7.64696234,17.9728376 7.64696234,18.3213575 Z M12.7446734,2.18285105 L15.6669429,5.07545577 L14.0192318,5.07545577 C13.3159396,5.07545577 12.7446734,4.50947119 12.7446734,3.81390964 L12.7446734,2.18285105 Z M22.3031149,17.6907692 L17.8424591,17.6907692 L17.8424591,5.70633971 C17.8424591,5.53884316 17.775326,5.37859051 17.6557708,5.26024895 L12.5579851,0.214212263 C12.4385045,0.0957967883 12.2769071,0.0294190754 12.1073195,0.0294190754 L2.54887792,0.0294190754 C1.14378701,0.0294190754 -1.49350649e-05,1.16101864 -1.49350649e-05,2.55243742 L-1.49350649e-05,21.4752598 C-1.49350649e-05,22.8666786 1.14378701,23.9982782 2.54887792,23.9982782 L7.64696234,23.9982782 L7.64696234,29.6751249 C7.64696234,30.0239405 7.93192338,30.3060827 8.28401753,30.3060827 L22.3031149,30.3060827 C22.6555078,30.3060827 22.9404688,30.0239405 22.9404688,29.6751249 L22.9404688,18.3216532 C22.9401701,17.9728376 22.6552091,17.6907692 22.3031149,17.6907692 Z" id="path-3"></path>
        <filter x="-41.4%" y="-28.1%" width="182.8%" height="162.8%" filterUnits="objectBoundingBox" id="filter-4">
            <feOffset dx="0" dy="1" in="SourceAlpha" result="shadowOffsetOuter1"></feOffset>
            <feGaussianBlur stdDeviation="3" in="shadowOffsetOuter1" result="shadowBlurOuter1"></feGaussianBlur>
            <feColorMatrix values="0 0 0 0 0   0 0 0 0 0   0 0 0 0 0  0 0 0 0.24 0" type="matrix" in="shadowBlurOuter1"></feColorMatrix>
        </filter>
        <path d="M14.0192318,22.7812154 C13.3152675,22.7812154 12.7446734,22.2164875 12.7446734,21.5197432 C12.7446734,20.822999 13.3152675,20.258271 14.0192318,20.258271 C14.7229721,20.258271 15.2935662,20.822999 15.2935662,21.5197432 C15.2935662,22.2164875 14.7229721,22.7812154 14.0192318,22.7812154 Z" id="path-5"></path>
        <filter x="-372.7%" y="-336.9%" width="845.4%" height="853.1%" filterUnits="objectBoundingBox" id="filter-6">
            <feOffset dx="0" dy="1" in="SourceAlpha" result="shadowOffsetOuter1"></feOffset>
            <feGaussianBlur stdDeviation="3" in="shadowOffsetOuter1" result="shadowBlurOuter1"></feGaussianBlur>
            <feColorMatrix values="0 0 0 0 0   0 0 0 0 0   0 0 0 0 0  0 0 0 0.24 0" type="matrix" in="shadowBlurOuter1"></feColorMatrix>
        </filter>
    </defs>
    <g id="UI/Icon/Document/Jpeg" stroke="none" stroke-width="1" fill="none" fill-rule="evenodd">
        <g id="Page-1" transform="translate(4.000000, 0.000000)">
            <g id="Group-3" transform="translate(0.000000, 0.044498)">
                <mask id="mask-2" fill="white">
                    <use xlink:href="#path-1"></use>
                </mask>
                <g id="Clip-2"></g>
                <g id="Fill-1" mask="url(#mask-2)">
                    <use fill="black" fill-opacity="1" filter="url(#filter-4)" xlink:href="#path-3"></use>
                    <use fill="#358ED7" fill-rule="evenodd" xlink:href="#path-3"></use>
                </g>
            </g>
            <g id="Fill-4">
                <use fill="black" fill-opacity="1" filter="url(#filter-6)" xlink:href="#path-5"></use>
                <use fill="#358ED7" fill-rule="evenodd" xlink:href="#path-5"></use>
            </g>
        </g>
    </g>
</svg>