<?xml version="1.0" encoding="UTF-8"?>
<svg width="22px" height="19px" viewBox="0 0 22 19" version="1.1" xmlns="http://www.w3.org/2000/svg">
    <!-- Generator: Sketch 47.1 (45422) - http://www.bohemiancoding.com/sketch -->
    <title>UI/icon/back</title>
    <desc>Created with Sketch.</desc>
    <defs></defs>
    <g id="Maquette--Boarding" stroke="none" stroke-width="1" fill="none" fill-rule="evenodd">
        <g id="Maquette---02---Boarding" transform="translate(-408.000000, -181.000000)" fill="#4C87C6">
            <g id="UI/icon/back" transform="translate(408.000000, 181.000000)">
                <path d="M21.021614,8.29386504 L3.3519627,8.29386504 L9.8849722,1.71940137 C10.2704563,1.33081913 10.2763266,0.69611252 9.89801734,0.300173304 C9.51840357,-0.0950970958 8.89941136,-0.100447626 8.51392727,0.286796979 L0.29287578,8.56005391 C0.106330182,8.74799127 0.000664492743,9.00414789 1.22354043e-05,9.27167439 C-0.00129227927,9.53920089 0.10176438,9.79669514 0.286353207,9.98597014 L8.5211021,18.4297752 C8.7122135,18.6257384 8.96268032,18.7233855 9.21314714,18.7233855 C9.4629617,18.7233855 9.71342852,18.6257384 9.90453992,18.4297752 C10.2867627,18.0378489 10.2867627,17.4024735 9.90453992,17.011216 L3.35978979,10.3003138 L21.021614,10.3003138 C21.5616831,10.3003138 22,9.85086926 22,9.29708941 C22,8.74264074 21.5616831,8.29386504 21.021614,8.29386504" id="1A" transform="translate(11.000000, 9.361693) rotate(-360.000000) translate(-11.000000, -9.361693) "></path>
            </g>
        </g>
    </g>
</svg>